HIERARCHY
ROOT Hips
{
	OFFSET 0.0000 0.0000 0.0000
	CHANNELS 6 Xposition Yposition Zposition Zrotation Xrotation Yrotation
	JOINT LeftUpperLeg
	{
		OFFSET 8.0000 0.0000 0.0000
		CHANNELS 3 Zrotation Xrotation Yrotation
		JOINT LeftLowerLeg
		{
			OFFSET 0.0000 -42.0000 0.0000
			CHANNELS 3 Zrotation Xrotation Yrotation
			JOINT LeftFoot
			{
				OFFSET 0.0000 -42.0000 0.0000
				CHANNELS 3 Zrotation Xrotation Yrotation
				JOINT LeftToe
				{
					OFFSET 0.0000 -8.0000 10.0000
					CHANNELS 3 Zrotation Xrotation Yrotation
					End Site
					{
						OFFSET 0.0000 5.0000 0.0000
					}
				}
			}
		}
	}
	JOINT RightUpperLeg
	{
		OFFSET -8.0000 0.0000 0.0000
		CHANNELS 3 Zrotation Xrotation Yrotation
		JOINT RightLowerLeg
		{
			OFFSET 0.0000 -42.0000 0.0000
			CHANNELS 3 Zrotation Xrotation Yrotation
			JOINT RightFoot
			{
				OFFSET 0.0000 -42.0000 0.0000
				CHANNELS 3 Zrotation Xrotation Yrotation
				JOINT RightToe
				{
					OFFSET 0.0000 -8.0000 10.0000
					CHANNELS 3 Zrotation Xrotation Yrotation
					End Site
					{
						OFFSET 0.0000 5.0000 0.0000
					}
				}
			}
		}
	}
	JOINT Spine
	{
		OFFSET 0.0000 8.0000 0.0000
		CHANNELS 3 Zrotation Xrotation Yrotation
		JOINT Spine1
		{
			OFFSET 0.0000 9.0000 0.0000
			CHANNELS 3 Zrotation Xrotation Yrotation
			JOINT Spine2
			{
				OFFSET 0.0000 9.0000 0.0000
				CHANNELS 3 Zrotation Xrotation Yrotation
				JOINT Neck
				{
					OFFSET 0.0000 20.0000 0.0000
					CHANNELS 3 Zrotation Xrotation Yrotation
					JOINT Head
					{
						OFFSET 0.0000 10.0000 0.0000
						CHANNELS 3 Zrotation Xrotation Yrotation
						JOINT Jaw
						{
							OFFSET 0.0000 -4.0000 5.0000
							CHANNELS 3 Zrotation Xrotation Yrotation
							End Site
							{
								OFFSET 0.0000 5.0000 0.0000
							}
						}
						JOINT LeftEye
						{
							OFFSET 3.0000 5.0000 7.0000
							CHANNELS 3 Zrotation Xrotation Yrotation
							End Site
							{
								OFFSET 0.0000 5.0000 0.0000
							}
						}
						JOINT RightEye
						{
							OFFSET -3.0000 5.0000 7.0000
							CHANNELS 3 Zrotation Xrotation Yrotation
							End Site
							{
								OFFSET 0.0000 5.0000 0.0000
							}
						}
					}
				}
				JOINT LeftShoulder
				{
					OFFSET 5.0000 18.0000 0.0000
					CHANNELS 3 Zrotation Xrotation Yrotation
					JOINT LeftUpperArm
					{
						OFFSET 15.0000 0.0000 0.0000
						CHANNELS 3 Zrotation Xrotation Yrotation
						JOINT LeftLowerArm
						{
							OFFSET 28.0000 0.0000 0.0000
							CHANNELS 3 Zrotation Xrotation Yrotation
							JOINT LeftHand
							{
								OFFSET 25.0000 0.0000 0.0000
								CHANNELS 3 Zrotation Xrotation Yrotation
								JOINT LeftIndexProximal
								{
									OFFSET 5.0000 -1.0000 1.0000
									CHANNELS 3 Zrotation Xrotation Yrotation
									JOINT LeftIndexIntermediate
									{
										OFFSET 4.0000 0.0000 0.0000
										CHANNELS 3 Zrotation Xrotation Yrotation
										JOINT LeftIndexDistal
										{
											OFFSET 3.0000 0.0000 0.0000
											CHANNELS 3 Zrotation Xrotation Yrotation
											End Site
											{
												OFFSET 0.0000 5.0000 0.0000
											}
										}
									}
								}
								JOINT LeftMiddleProximal
								{
									OFFSET 5.0000 0.0000 0.0000
									CHANNELS 3 Zrotation Xrotation Yrotation
									JOINT LeftMiddleIntermediate
									{
										OFFSET 4.0000 0.0000 0.0000
										CHANNELS 3 Zrotation Xrotation Yrotation
										JOINT LeftMiddleDistal
										{
											OFFSET 3.0000 0.0000 0.0000
											CHANNELS 3 Zrotation Xrotation Yrotation
											End Site
											{
												OFFSET 0.0000 5.0000 0.0000
											}
										}
									}
								}
								JOINT LeftLittleProximal
								{
									OFFSET 5.0000 1.5000 0.0000
									CHANNELS 3 Zrotation Xrotation Yrotation
									JOINT LeftLittleIntermediate
									{
										OFFSET 3.0000 0.0000 0.0000
										CHANNELS 3 Zrotation Xrotation Yrotation
										JOINT LeftLittleDistal
										{
											OFFSET 2.0000 0.0000 0.0000
											CHANNELS 3 Zrotation Xrotation Yrotation
											End Site
											{
												OFFSET 0.0000 5.0000 0.0000
											}
										}
									}
								}
								JOINT LeftRingProximal
								{
									OFFSET 5.0000 0.8000 0.0000
									CHANNELS 3 Zrotation Xrotation Yrotation
									JOINT LeftRingIntermediate
									{
										OFFSET 4.0000 0.0000 0.0000
										CHANNELS 3 Zrotation Xrotation Yrotation
										JOINT LeftRingDistal
										{
											OFFSET 3.0000 0.0000 0.0000
											CHANNELS 3 Zrotation Xrotation Yrotation
											End Site
											{
												OFFSET 0.0000 5.0000 0.0000
											}
										}
									}
								}
								JOINT LeftThumbProximal
								{
									OFFSET 3.0000 -2.0000 2.0000
									CHANNELS 3 Zrotation Xrotation Yrotation
									JOINT LeftThumbIntermediate
									{
										OFFSET 3.0000 0.0000 0.0000
										CHANNELS 3 Zrotation Xrotation Yrotation
										JOINT LeftThumbDistal
										{
											OFFSET 2.5000 0.0000 0.0000
											CHANNELS 3 Zrotation Xrotation Yrotation
											End Site
											{
												OFFSET 0.0000 5.0000 0.0000
											}
										}
									}
								}
							}
						}
					}
				}
				JOINT RightShoulder
				{
					OFFSET -5.0000 18.0000 0.0000
					CHANNELS 3 Zrotation Xrotation Yrotation
					JOINT RightUpperArm
					{
						OFFSET -15.0000 0.0000 0.0000
						CHANNELS 3 Zrotation Xrotation Yrotation
						JOINT RightLowerArm
						{
							OFFSET -28.0000 0.0000 0.0000
							CHANNELS 3 Zrotation Xrotation Yrotation
							JOINT RightHand
							{
								OFFSET -25.0000 0.0000 0.0000
								CHANNELS 3 Zrotation Xrotation Yrotation
								JOINT RightIndexProximal
								{
									OFFSET -5.0000 -1.0000 1.0000
									CHANNELS 3 Zrotation Xrotation Yrotation
									JOINT RightIndexIntermediate
									{
										OFFSET -4.0000 0.0000 0.0000
										CHANNELS 3 Zrotation Xrotation Yrotation
										JOINT RightIndexDistal
										{
											OFFSET -3.0000 0.0000 0.0000
											CHANNELS 3 Zrotation Xrotation Yrotation
											End Site
											{
												OFFSET 0.0000 5.0000 0.0000
											}
										}
									}
								}
								JOINT RightMiddleProximal
								{
									OFFSET -5.0000 0.0000 0.0000
									CHANNELS 3 Zrotation Xrotation Yrotation
									JOINT RightMiddleIntermediate
									{
										OFFSET -4.0000 0.0000 0.0000
										CHANNELS 3 Zrotation Xrotation Yrotation
										JOINT RightMiddleDistal
										{
											OFFSET -3.0000 0.0000 0.0000
											CHANNELS 3 Zrotation Xrotation Yrotation
											End Site
											{
												OFFSET 0.0000 5.0000 0.0000
											}
										}
									}
								}
								JOINT RightLittleProximal
								{
									OFFSET -5.0000 1.5000 0.0000
									CHANNELS 3 Zrotation Xrotation Yrotation
									JOINT RightLittleIntermediate
									{
										OFFSET -3.0000 0.0000 0.0000
										CHANNELS 3 Zrotation Xrotation Yrotation
										JOINT RightLittleDistal
										{
											OFFSET -2.0000 0.0000 0.0000
											CHANNELS 3 Zrotation Xrotation Yrotation
											End Site
											{
												OFFSET 0.0000 5.0000 0.0000
											}
										}
									}
								}
								JOINT RightRingProximal
								{
									OFFSET -5.0000 0.8000 0.0000
									CHANNELS 3 Zrotation Xrotation Yrotation
									JOINT RightRingIntermediate
									{
										OFFSET -4.0000 0.0000 0.0000
										CHANNELS 3 Zrotation Xrotation Yrotation
										JOINT RightRingDistal
										{
											OFFSET -3.0000 0.0000 0.0000
											CHANNELS 3 Zrotation Xrotation Yrotation
											End Site
											{
												OFFSET 0.0000 5.0000 0.0000
											}
										}
									}
								}
								JOINT RightThumbProximal
								{
									OFFSET -3.0000 -2.0000 2.0000
									CHANNELS 3 Zrotation Xrotation Yrotation
									JOINT RightThumbIntermediate
									{
										OFFSET -3.0000 0.0000 0.0000
										CHANNELS 3 Zrotation Xrotation Yrotation
										JOINT RightThumbDistal
										{
											OFFSET -2.5000 0.0000 0.0000
											CHANNELS 3 Zrotation Xrotation Yrotation
											End Site
											{
												OFFSET 0.0000 5.0000 0.0000
											}
										}
									}
								}
							}
						}
					}
				}
			}
		}
	}
}
MOTION
Frames: 6
Frame Time: 0.033333
-5.101006 90.274109 -64.336143 -135.078888 87.750230 -15.096338 -2.163642 -34.741243 3.808052 19.101570 63.923756 -10.106944 -15.820198 -32.932047 -20.540950 0.124760 0.117515 0.062318 4.022218 -31.617454 1.667726 -7.453462 67.391571 5.712729 4.058662 -30.852985 15.497845 -0.122159 -0.065773 0.020616 3.424339 28.505526 -3.136774 1.832580 -8.911941 -2.237974 -2.637412 7.460877 -0.990816 3.476008 -12.199018 0.623608 -3.388144 -20.623507 -1.018158 -0.000000 0.000000 0.000000 -0.000000 0.000000 0.000000 -0.000000 0.000000 0.000000 22.596244 3.237272 -10.600154 40.887700 6.180907 -15.547092 -14.394333 14.492007 54.152586 -12.940333 -5.943198 17.653803 -0.000000 0.000000 0.000000 -0.000000 0.000000 0.000000 -0.000000 0.000000 0.000000 -0.000000 0.000000 0.000000 -0.000000 0.000000 0.000000 -0.000000 0.000000 0.000000 -0.000000 0.000000 0.000000 -0.000000 0.000000 0.000000 -0.000000 0.000000 0.000000 -0.000000 0.000000 0.000000 -0.000000 0.000000 0.000000 -0.000000 0.000000 0.000000 -0.000000 0.000000 0.000000 -0.000000 0.000000 0.000000 -0.000000 0.000000 0.000000 -20.067000 3.512030 4.102926 -34.602130 4.015599 11.634073 13.829864 5.941070 -49.307914 9.326173 4.731841 -9.265808 -0.000000 0.000000 0.000000 -0.000000 0.000000 0.000000 -0.000000 0.000000 0.000000 -0.000000 0.000000 0.000000 -0.000000 0.000000 0.000000 -0.000000 0.000000 0.000000 -0.000000 0.000000 0.000000 -0.000000 0.000000 0.000000 -0.000000 0.000000 0.000000 -0.000000 0.000000 0.000000 -0.000000 0.000000 0.000000 -0.000000 0.000000 0.000000 -0.000000 0.000000 0.000000 -0.000000 0.000000 0.000000 -0.000000 0.000000 0.000000
-4.964754 90.142632 -67.513252 -137.861584 86.453468 -11.350733 -1.824711 -37.703642 4.873424 27.152232 71.483524 -18.599850 -18.907158 -36.569797 -22.804288 0.120605 0.144036 0.061409 3.613677 -35.018721 0.380406 -14.083998 74.551853 13.410674 6.043921 -34.140312 16.575696 -0.025495 -0.074349 0.042698 3.356272 30.931851 -2.947625 1.632606 -7.898002 -2.395541 -2.439008 6.854561 -1.148327 4.069369 -12.358985 0.386304 -3.359318 -21.572483 -0.885974 -0.000000 0.000000 0.000000 -0.000000 0.000000 0.000000 -0.000000 0.000000 0.000000 23.735611 2.865992 -8.813031 47.097273 4.390588 -13.180993 -14.208086 14.563664 46.942713 -13.389432 -7.417428 15.230198 -0.000000 0.000000 0.000000 -0.000000 0.000000 0.000000 -0.000000 0.000000 0.000000 -0.000000 0.000000 0.000000 -0.000000 0.000000 0.000000 -0.000000 0.000000 0.000000 -0.000000 0.000000 0.000000 -0.000000 0.000000 0.000000 -0.000000 0.000000 0.000000 -0.000000 0.000000 0.000000 -0.000000 0.000000 0.000000 -0.000000 0.000000 0.000000 -0.000000 0.000000 0.000000 -0.000000 0.000000 0.000000 -0.000000 0.000000 0.000000 -21.446417 4.074263 1.954513 -40.013510 2.679468 9.451721 14.099802 5.090856 -44.776973 9.431362 3.246738 -8.625146 -0.000000 0.000000 0.000000 -0.000000 0.000000 0.000000 -0.000000 0.000000 0.000000 -0.000000 0.000000 0.000000 -0.000000 0.000000 0.000000 -0.000000 0.000000 0.000000 -0.000000 0.000000 0.000000 -0.000000 0.000000 0.000000 -0.000000 0.000000 0.000000 -0.000000 0.000000 0.000000 -0.000000 0.000000 0.000000 -0.000000 0.000000 0.000000 -0.000000 0.000000 0.000000 -0.000000 0.000000 0.000000 -0.000000 0.000000 0.000000
-4.980512 90.271461 -68.712212 -138.545530 85.454488 -9.713505 -1.678031 -38.499501 5.397398 33.362086 74.965506 -25.261077 -20.562287 -37.977731 -24.189482 0.100180 0.190112 0.052161 3.134787 -36.330473 -0.451194 -19.843395 77.780515 19.625409 7.061166 -35.400354 16.908803 0.043931 -0.053502 0.086905 3.102752 32.017917 -2.622836 1.682576 -7.232671 -2.325723 -2.290316 6.452701 -1.250058 4.437779 -11.758995 -0.175037 -3.421835 -22.089512 -0.810160 -0.000000 0.000000 0.000000 -0.000000 0.000000 0.000000 -0.000000 0.000000 0.000000 24.335436 2.792370 -7.334559 51.555144 3.698997 -11.410993 -13.829150 14.892359 42.797740 -13.008829 -8.408377 13.178702 -0.000000 0.000000 0.000000 -0.000000 0.000000 0.000000 -0.000000 0.000000 0.000000 -0.000000 0.000000 0.000000 -0.000000 0.000000 0.000000 -0.000000 0.000000 0.000000 -0.000000 0.000000 0.000000 -0.000000 0.000000 0.000000 -0.000000 0.000000 0.000000 -0.000000 0.000000 0.000000 -0.000000 0.000000 0.000000 -0.000000 0.000000 0.000000 -0.000000 0.000000 0.000000 -0.000000 0.000000 0.000000 -0.000000 0.000000 0.000000 -22.022407 4.604788 0.117095 -44.972368 2.081779 7.389781 13.974969 4.817939 -42.546670 9.502272 1.911631 -7.995107 -0.000000 0.000000 0.000000 -0.000000 0.000000 0.000000 -0.000000 0.000000 0.000000 -0.000000 0.000000 0.000000 -0.000000 0.000000 0.000000 -0.000000 0.000000 0.000000 -0.000000 0.000000 0.000000 -0.000000 0.000000 0.000000 -0.000000 0.000000 0.000000 -0.000000 0.000000 0.000000 -0.000000 0.000000 0.000000 -0.000000 0.000000 0.000000 -0.000000 0.000000 0.000000 -0.000000 0.000000 0.000000 -0.000000 0.000000 0.000000
-5.100737 90.559265 -68.534317 -138.563138 84.793062 -8.762540 -1.652245 -37.880787 5.214855 33.952695 75.889693 -26.226763 -20.877776 -37.915332 -24.702428 0.059408 0.201591 0.072564 2.892346 -35.956129 -0.872774 -21.678435 78.646200 22.053158 7.143966 -35.232457 16.511807 0.053004 -0.054815 0.114408 2.742793 31.861382 -2.197039 1.646760 -6.919409 -2.354647 -2.214065 6.189721 -1.270052 4.579403 -11.048512 -0.738745 -3.401383 -21.767085 -0.867324 -0.000000 0.000000 0.000000 -0.000000 0.000000 0.000000 -0.000000 0.000000 0.000000 24.562378 2.876612 -6.370366 54.550580 3.653093 -10.495465 -13.785552 14.963436 42.063784 -12.393032 -8.910461 11.872625 -0.000000 0.000000 0.000000 -0.000000 0.000000 0.000000 -0.000000 0.000000 0.000000 -0.000000 0.000000 0.000000 -0.000000 0.000000 0.000000 -0.000000 0.000000 0.000000 -0.000000 0.000000 0.000000 -0.000000 0.000000 0.000000 -0.000000 0.000000 0.000000 -0.000000 0.000000 0.000000 -0.000000 0.000000 0.000000 -0.000000 0.000000 0.000000 -0.000000 0.000000 0.000000 -0.000000 0.000000 0.000000 -0.000000 0.000000 0.000000 -22.102442 4.626244 -0.830655 -48.480918 1.988887 6.076011 14.113612 4.893735 -42.405285 9.296204 1.775467 -7.505356 -0.000000 0.000000 0.000000 -0.000000 0.000000 0.000000 -0.000000 0.000000 0.000000 -0.000000 0.000000 0.000000 -0.000000 0.000000 0.000000 -0.000000 0.000000 0.000000 -0.000000 0.000000 0.000000 -0.000000 0.000000 0.000000 -0.000000 0.000000 0.000000 -0.000000 0.000000 0.000000 -0.000000 0.000000 0.000000 -0.000000 0.000000 0.000000 -0.000000 0.000000 0.000000 -0.000000 0.000000 0.000000 -0.000000 0.000000 0.000000
-5.205296 90.818405 -66.927345 -138.923933 84.370952 -7.603231 -0.960001 -35.792467 5.574524 27.281576 74.331005 -17.378252 -16.804885 -30.585807 -20.811875 -0.002244 0.022650 0.018990 2.005442 -34.692078 -0.787454 -9.612070 76.657518 5.803272 6.021590 -29.657155 16.554451 -0.089986 -0.029036 -0.169662 2.109947 31.602715 -2.492658 2.414051 -9.929773 -2.236295 -2.383912 8.514637 -1.652197 5.404981 -10.855250 -0.684610 -3.913391 -19.096840 -4.289856 -0.000000 0.000000 0.000000 -0.000000 0.000000 0.000000 -0.000000 0.000000 0.000000 24.694986 1.697569 -6.005166 52.083405 3.239222 -8.903499 -15.242396 17.796445 42.286836 -18.267213 -1.516553 8.440777 -0.000000 0.000000 0.000000 -0.000000 0.000000 0.000000 -0.000000 0.000000 0.000000 -0.000000 0.000000 0.000000 -0.000000 0.000000 0.000000 -0.000000 0.000000 0.000000 -0.000000 0.000000 0.000000 -0.000000 0.000000 0.000000 -0.000000 0.000000 0.000000 -0.000000 0.000000 0.000000 -0.000000 0.000000 0.000000 -0.000000 0.000000 0.000000 -0.000000 0.000000 0.000000 -0.000000 0.000000 0.000000 -0.000000 0.000000 0.000000 -20.672679 4.770587 0.459036 -48.281491 1.105210 6.039473 14.565755 7.937527 -46.233047 14.543537 7.504315 -5.801260 -0.000000 0.000000 0.000000 -0.000000 0.000000 0.000000 -0.000000 0.000000 0.000000 -0.000000 0.000000 0.000000 -0.000000 0.000000 0.000000 -0.000000 0.000000 0.000000 -0.000000 0.000000 0.000000 -0.000000 0.000000 0.000000 -0.000000 0.000000 0.000000 -0.000000 0.000000 0.000000 -0.000000 0.000000 0.000000 -0.000000 0.000000 0.000000 -0.000000 0.000000 0.000000 -0.000000 0.000000 0.000000 -0.000000 0.000000 0.000000
-4.994005 90.971657 -63.525261 -143.862854 85.364562 -2.140189 0.010975 -34.773892 6.460141 20.534674 69.634813 -9.199676 -11.862526 -23.359551 -16.932313 0.026871 0.039186 0.017579 2.534093 -31.882749 0.085618 -3.162825 68.448970 -1.863934 2.963228 -22.776318 15.720401 -0.101350 0.013653 -0.160104 1.951220 30.349038 -2.871265 3.177572 -11.196977 -1.671129 -2.293253 9.510898 -1.845189 6.381159 -9.351811 -0.144379 -4.296873 -17.952686 -5.692575 -0.000000 0.000000 0.000000 -0.000000 0.000000 0.000000 -0.000000 0.000000 0.000000 23.482939 0.731800 -5.899737 45.898512 2.960085 -7.418613 -15.003898 17.231552 42.709009 -18.758406 4.274512 8.964080 -0.000000 0.000000 0.000000 -0.000000 0.000000 0.000000 -0.000000 0.000000 0.000000 -0.000000 0.000000 0.000000 -0.000000 0.000000 0.000000 -0.000000 0.000000 0.000000 -0.000000 0.000000 0.000000 -0.000000 0.000000 0.000000 -0.000000 0.000000 0.000000 -0.000000 0.000000 0.000000 -0.000000 0.000000 0.000000 -0.000000 0.000000 0.000000 -0.000000 0.000000 0.000000 -0.000000 0.000000 0.000000 -0.000000 0.000000 0.000000 -18.534138 4.387996 1.788666 -43.568817 -0.720753 6.323314 14.655071 7.296672 -48.917915 16.894999 10.817050 -5.567836 -0.000000 0.000000 0.000000 -0.000000 0.000000 0.000000 -0.000000 0.000000 0.000000 -0.000000 0.000000 0.000000 -0.000000 0.000000 0.000000 -0.000000 0.000000 0.000000 -0.000000 0.000000 0.000000 -0.000000 0.000000 0.000000 -0.000000 0.000000 0.000000 -0.000000 0.000000 0.000000 -0.000000 0.000000 0.000000 -0.000000 0.000000 0.000000 -0.000000 0.000000 0.000000 -0.000000 0.000000 0.000000 -0.000000 0.000000 0.000000
